<?xml version="1.0" encoding="UTF-8"?>
<!DOCTYPE svg PUBLIC "-//W3C//DTD SVG 1.1//EN" "http://www.w3.org/Graphics/SVG/1.1/DTD/svg11.dtd">
<!-- Creator: CorelDRAW 2017 -->
<svg xmlns="http://www.w3.org/2000/svg" xml:space="preserve" width="215.9mm" height="279.4mm" version="1.1" style="shape-rendering:geometricPrecision; text-rendering:geometricPrecision; image-rendering:optimizeQuality; fill-rule:evenodd; clip-rule:evenodd"
viewBox="0 0 21590 27940"
 xmlns:xlink="http://www.w3.org/1999/xlink">
 <defs>
  <style type="text/css">
   <![CDATA[
    .fil0 {fill:black}
    .fil5 {fill:lime}
    .fil5:hover{fill:#79FC79}
    .fil1 {fill:aqua}
    .fil6 {fill:#666666}
    .fil6:hover{fill:#FFFFFF}
    .fil4 {fill:red}
    .fil4:hover{fill:#FF7F7F}
    .fil2 {fill:blue;fill-rule:nonzero}
    .fil3 {fill:#4D4D4D;fill-rule:nonzero}
   ]]>
  </style>
 </defs>
 <g id="Capa_x0020_1">
  <metadata id="CorelCorpID_0Corel-Layer"/>
  <rect id="Fondo" class="fil0" width="21590" height="27940"/>
  <path id="Marco_x0020_Pantalla_x0020_" class="fil1" d="M4371 1197l12848 0c330,0 600,270 600,600l0 2123 -14048 0 0 -2123c0,-330 270,-600 600,-600z"/>
  <path id="Texto_x0020_Pantalla" class="fil2" d="M9287 2432c0,66 -24,114 -73,146 -49,31 -109,47 -180,47 -13,0 -22,0 -28,-1 0,52 2,120 5,205l-116 0c4,-80 5,-173 5,-282 0,-99 -2,-185 -5,-257l72 0c10,0 30,0 59,-1 29,-1 54,-1 75,-1 52,0 97,12 133,36 36,24 54,60 54,108zm-107 23c0,-59 -39,-88 -117,-88 -19,0 -40,2 -62,6 3,52 5,111 5,177 7,0 15,1 24,1 101,0 151,-32 151,-95z"/>
  <path id="1" class="fil2" d="M9817 2829l-132 0c0,-18 -13,-70 -38,-155l-191 0c-26,84 -39,135 -39,155l-124 0c0,-11 32,-99 97,-265 64,-166 97,-257 97,-274l156 0c0,16 29,106 87,270 58,164 87,254 87,269zm-191 -234c-47,-142 -71,-219 -71,-231l-7 0c0,11 -24,88 -73,231l151 0z"/>
  <path id="2" class="fil2" d="M10324 2829l-102 0c0,-11 -38,-71 -114,-179 -79,-114 -125,-192 -136,-234l-7 0c7,60 10,115 10,164 0,68 2,151 6,249l-102 0c4,-86 6,-179 6,-282 0,-101 -2,-186 -6,-257l123 0c0,15 34,73 102,175 72,108 114,182 125,220l6 0c-7,-61 -10,-117 -10,-165 0,-75 -2,-151 -6,-230l103 0c-4,68 -6,154 -6,257 0,104 2,197 6,282z"/>
  <path id="3" class="fil2" d="M10820 2291l-3 89c-55,-4 -107,-6 -156,-6 -1,52 -1,110 -1,174 0,99 2,193 5,282l-116 0c4,-88 5,-181 5,-282 0,-63 -1,-121 -2,-174 -39,0 -92,2 -160,7l3 -89 424 0z"/>
  <path id="4" class="fil2" d="M11341 2829l-132 0c0,-18 -13,-70 -38,-155l-191 0c-26,84 -39,135 -39,155l-124 0c0,-11 32,-99 97,-265 64,-166 97,-257 97,-274l156 0c0,16 29,106 87,270 58,164 87,254 87,269zm-191 -234c-47,-142 -71,-219 -71,-231l-7 0c0,11 -24,88 -73,231l151 0z"/>
  <path id="5" class="fil2" d="M11752 2739l-3 90 -343 0c3,-75 5,-168 5,-282 0,-104 -2,-189 -5,-257l116 0c-3,63 -5,148 -5,257 0,83 -2,149 -5,198 76,0 156,-2 241,-6z"/>
  <path id="6" class="fil2" d="M12163 2739l-3 90 -343 0c3,-75 5,-168 5,-282 0,-104 -2,-189 -5,-257l116 0c-3,63 -5,148 -5,257 0,83 -2,149 -5,198 76,0 156,-2 241,-6z"/>
  <path id="7" class="fil2" d="M12696 2829l-132 0c0,-18 -13,-70 -38,-155l-191 0c-26,84 -39,135 -39,155l-124 0c0,-11 32,-99 97,-265 64,-166 97,-257 97,-274l156 0c0,16 29,106 87,270 58,164 87,254 87,269zm-191 -234c-47,-142 -71,-219 -71,-231l-7 0c0,11 -24,88 -73,231l151 0z"/>
  <path id="Letra_x0020_a" class="fil3" d="M3157 5391l-122 4c-6,-15 -8,-28 -8,-39l-7 0c-38,32 -89,49 -153,49 -43,0 -79,-12 -107,-36 -29,-24 -43,-56 -43,-95 0,-52 22,-95 66,-129 44,-34 122,-51 233,-53 1,-6 1,-12 1,-18 0,-37 -9,-62 -27,-74 -18,-12 -51,-18 -99,-18 -52,0 -103,7 -152,21l11 -95c47,-16 113,-24 198,-24 62,0 111,13 144,39 34,26 51,72 51,137 0,14 -1,41 -2,79 -1,38 -2,64 -2,77 0,71 5,130 17,175zm-138 -107c-2,-47 -3,-87 -3,-120 -117,0 -176,30 -176,89 0,41 26,61 78,61 41,0 74,-10 102,-30z"/>
  <path id="Letra_x0020_b" class="fil3" d="M6013 5125c0,75 -21,140 -64,197 -43,57 -101,85 -176,85 -55,0 -94,-12 -117,-35l-7 0 -10 20 -122 0c5,-121 7,-249 7,-384 0,-127 -6,-241 -17,-343l148 -8c-4,80 -5,171 -5,272l6 0c35,-31 82,-46 141,-46 66,0 119,24 157,72 39,48 58,104 58,170zm-137 13c0,-43 -11,-80 -33,-112 -22,-32 -52,-47 -90,-47 -47,0 -82,14 -104,42 0,118 2,207 8,266 22,17 50,25 84,25 46,0 80,-17 102,-51 22,-34 33,-75 33,-123z"/>
  <path id="Letra_x0020_c" class="fil3" d="M8791 5283l-9 99c-31,17 -74,25 -128,25 -89,0 -157,-25 -205,-74 -48,-50 -72,-109 -72,-179 0,-72 25,-135 75,-189 50,-54 118,-81 205,-81 42,0 80,5 113,14l-18 105c-32,-13 -67,-20 -106,-20 -42,0 -75,15 -99,44 -24,29 -36,66 -36,109 0,47 14,86 43,119 29,32 69,49 122,49 31,0 69,-7 114,-21z"/>
  <path id="Letra_x0020_d" class="fil3" d="M13253 5391l-122 4c-2,-12 -4,-25 -4,-38l-8 0c-38,33 -86,49 -145,49 -66,0 -119,-24 -158,-72 -39,-48 -58,-105 -58,-171 0,-76 21,-141 64,-197 42,-56 101,-84 177,-84 49,0 86,9 110,27l7 0c0,-81 -4,-163 -12,-245l146 -4c-5,80 -8,196 -8,346 0,153 4,281 11,384zm-130 -117c0,-110 -2,-201 -8,-273 -24,-17 -52,-25 -85,-25 -46,0 -79,17 -101,51 -22,34 -33,75 -33,124 0,43 11,81 32,112 21,32 51,47 89,47 51,0 86,-12 106,-37z"/>
  <path id="Letra_x0020_e" class="fil3" d="M16065 5094c0,17 -1,40 -3,69l-333 6c5,39 22,71 50,97 29,26 66,39 113,39 52,0 107,-8 165,-23l-10 100c-48,17 -107,26 -177,26 -89,0 -157,-25 -204,-75 -47,-50 -71,-110 -71,-180 0,-73 23,-137 67,-191 45,-54 107,-81 188,-81 73,0 127,20 163,59 36,40 53,91 53,155zm-121 -5c0,-79 -34,-119 -101,-119 -64,0 -103,41 -115,123l216 -4z"/>
  <path id="Letra_x0020_f" class="fil3" d="M18831 4659l-19 92c-20,-5 -40,-7 -61,-7 -25,0 -42,11 -51,34 -9,23 -14,67 -14,132 31,0 73,-1 127,-4l-4 103c-54,-2 -95,-3 -122,-3 0,130 2,259 8,386l-137 0c5,-126 8,-255 8,-386 -20,0 -50,1 -90,3l4 -102c37,2 65,4 86,4 0,-173 58,-260 175,-260 35,0 65,3 90,9z"/>
  <path id="numero_x0020_1" class="fil3" d="M1029 7702l-138 0c4,-89 6,-161 6,-215 0,-55 -1,-115 -4,-178l-83 36 -27 -50 181 -140 64 0c-4,142 -6,252 -6,331 0,53 2,124 6,215z"/>
  <path id="numero_x0020_2" class="fil3" d="M1069 11107l-11 111 -393 0 11 -104c146,-81 218,-162 218,-244 0,-68 -47,-102 -141,-102 -25,0 -52,2 -80,7l10 -96c30,-8 73,-11 128,-11 70,0 124,15 161,45 37,30 55,71 55,122 0,65 -24,120 -72,167 -48,47 -99,82 -153,106l0 7c76,0 165,-3 268,-8z"/>
  <path id="numero_x0020_3" class="fil3" d="M1089 14553c0,70 -33,131 -100,182 -76,59 -182,92 -317,100l-14 -86c91,-6 162,-24 215,-55 55,-32 82,-73 82,-122 0,-82 -77,-123 -231,-123l11 -83c57,0 103,-10 139,-29 36,-19 54,-44 54,-75 0,-55 -43,-83 -129,-83 -39,0 -73,3 -103,9l9 -96c24,-9 73,-13 148,-13 65,0 115,13 150,40 32,25 49,59 49,102 0,34 -12,65 -37,93 -22,26 -50,44 -82,54l0 8c46,8 83,28 112,59 29,32 43,71 43,118z"/>
  <path id="numero_x0020_4" class="fil3" d="M1107 17979l-11 112 -82 0c0,64 2,143 6,237l-137 0c3,-87 5,-166 5,-237l-266 0 -11 -98c0,-6 44,-69 133,-189 89,-120 133,-184 134,-192l142 0c-5,116 -7,240 -7,371 31,0 62,-2 93,-5zm-206 -254l-7 0c0,7 -29,51 -89,131 -59,80 -89,122 -89,127l0 7c44,0 102,-1 176,-3 2,-96 5,-184 9,-262z"/>
  <path id="numero_x0020_5" class="fil3" d="M1072 21573c0,71 -33,133 -99,185 -73,57 -170,89 -293,95l-14 -85c84,-7 150,-25 197,-55 47,-30 71,-69 71,-116 0,-50 -21,-86 -62,-108 -41,-22 -110,-33 -206,-33 20,-161 31,-273 31,-337l336 0 -5 113c-66,-7 -147,-11 -244,-11 -8,50 -11,97 -11,143 201,0 301,70 301,210z"/>
  <path id="numero_x0020_6" class="fil3" d="M1090 25119c0,63 -20,117 -59,162 -44,50 -102,76 -174,76 -65,0 -118,-21 -160,-63 -49,-49 -73,-121 -73,-215 0,-279 126,-425 379,-437l10 84c-157,17 -244,98 -261,242l8 0c29,-35 73,-53 133,-53 63,0 112,21 148,63 33,38 49,85 49,141zm-123 18c0,-38 -10,-69 -29,-95 -22,-29 -54,-43 -93,-43 -39,0 -71,14 -96,43 0,149 38,223 113,223 33,0 59,-13 79,-40 18,-24 27,-53 27,-88z"/>
  <path id="Carro_x0020_1" class="fil4" d="M3337 5822l-804 0c-213,0 -386,237 -386,450l0 517 -12 0 0 -48c0,-41 -33,-74 -74,-74l-39 0c-82,0 -149,67 -149,149l0 21 262 0 12 0 0 1814c0,213 173,386 386,386l804 0c213,0 386,-173 386,-386l0 -1814 14 0 262 0 0 -21c0,-82 -67,-149 -149,-149l-39 0c-41,0 -74,33 -74,74l0 48 -14 0 0 -517c0,-213 -173,-450 -386,-450zm318 969l0 797 -186 24 0 -328 186 -493zm-98 -233c-69,267 -152,582 -152,582l-941 0 -152 -582c0,0 607,-206 1244,0zm-1153 748l0 307 -187 -24 0 -776 187 493zm-187 1109l0 -708 187 23 0 560 -187 124zm106 201l152 -228 941 0 152 228 -1244 0zm1145 -347l0 -538 186 -24 0 687 -186 -124z"/>
  <path id="Carro_x0020_2" class="fil5" d="M6161 5822l-804 0c-213,0 -386,237 -386,450l0 517 -12 0 0 -48c0,-41 -33,-74 -74,-74l-39 0c-82,0 -149,67 -149,149l0 21 262 0 12 0 0 1814c0,213 173,386 386,386l804 0c213,0 386,-173 386,-386l0 -1814 14 0 262 0 0 -21c0,-82 -67,-149 -149,-149l-39 0c-41,0 -74,33 -74,74l0 48 -14 0 0 -517c0,-213 -173,-450 -386,-450zm318 969l0 797 -186 24 0 -328 186 -493zm-98 -233c-69,267 -152,582 -152,582l-941 0 -152 -582c0,0 607,-206 1244,0zm-1153 748l0 307 -187 -24 0 -776 187 493zm-187 1109l0 -708 187 23 0 560 -187 124zm106 201l152 -228 941 0 152 228 -1244 0zm1145 -347l0 -538 186 -24 0 687 -186 -124z"/>
  <path id="Carro_x0020_3" class="fil6" d="M8985 5822l-804 0c-213,0 -386,237 -386,450l0 517 -12 0 0 -48c0,-41 -33,-74 -74,-74l-39 0c-82,0 -149,67 -149,149l0 21 262 0 12 0 0 1814c0,213 173,386 386,386l804 0c213,0 386,-173 386,-386l0 -1814 14 0 262 0 0 -21c0,-82 -67,-149 -149,-149l-39 0c-41,0 -74,33 -74,74l0 48 -14 0 0 -517c0,-213 -173,-450 -386,-450zm318 969l0 797 -186 24 0 -328 186 -493zm-98 -233c-69,267 -152,582 -152,582l-941 0 -152 -582c0,0 607,-206 1244,0zm-1153 748l0 307 -187 -24 0 -776 187 493zm-187 1109l0 -708 187 23 0 560 -187 124zm106 201l152 -228 941 0 152 228 -1244 0zm1145 -347l0 -538 186 -24 0 687 -186 -124z"/>
  <path id="Carro_x0020_4" class="fil6" d="M13407 5822l-804 0c-213,0 -386,237 -386,450l0 517 -12 0 0 -48c0,-41 -33,-74 -74,-74l-39 0c-82,0 -149,67 -149,149l0 21 262 0 12 0 0 1814c0,213 173,386 386,386l804 0c213,0 386,-173 386,-386l0 -1814 14 0 262 0 0 -21c0,-82 -67,-149 -149,-149l-39 0c-41,0 -74,33 -74,74l0 48 -14 0 0 -517c0,-213 -173,-450 -386,-450zm318 969l0 797 -186 24 0 -328 186 -493zm-98 -233c-69,267 -152,582 -152,582l-941 0 -152 -582c0,0 607,-206 1244,0zm-1153 748l0 307 -187 -24 0 -776 187 493zm-187 1109l0 -708 187 23 0 560 -187 124zm106 201l152 -228 941 0 152 228 -1244 0zm1145 -347l0 -538 186 -24 0 687 -186 -124z"/>
  <path id="Carro_x0020_5" class="fil6" d="M16231 5822l-804 0c-213,0 -386,237 -386,450l0 517 -12 0 0 -48c0,-41 -33,-74 -74,-74l-39 0c-82,0 -149,67 -149,149l0 21 262 0 12 0 0 1814c0,213 173,386 386,386l804 0c213,0 386,-173 386,-386l0 -1814 14 0 262 0 0 -21c0,-82 -67,-149 -149,-149l-39 0c-41,0 -74,33 -74,74l0 48 -14 0 0 -517c0,-213 -173,-450 -386,-450zm318 969l0 797 -186 24 0 -328 186 -493zm-98 -233c-69,267 -152,582 -152,582l-941 0 -152 -582c0,0 607,-206 1244,0zm-1153 748l0 307 -187 -24 0 -776 187 493zm-187 1109l0 -708 187 23 0 560 -187 124zm106 201l152 -228 941 0 152 228 -1244 0zm1145 -347l0 -538 186 -24 0 687 -186 -124z"/>
  <path id="Carro_x0020_6" class="fil6" d="M19055 5822l-804 0c-213,0 -386,237 -386,450l0 517 -12 0 0 -48c0,-41 -33,-74 -74,-74l-39 0c-82,0 -149,67 -149,149l0 21 262 0 12 0 0 1814c0,213 173,386 386,386l804 0c213,0 386,-173 386,-386l0 -1814 14 0 262 0 0 -21c0,-82 -67,-149 -149,-149l-39 0c-41,0 -74,33 -74,74l0 48 -14 0 0 -517c0,-213 -173,-450 -386,-450zm318 969l0 797 -186 24 0 -328 186 -493zm-98 -233c-69,267 -152,582 -152,582l-941 0 -152 -582c0,0 607,-206 1244,0zm-1153 748l0 307 -187 -24 0 -776 187 493zm-187 1109l0 -708 187 23 0 560 -187 124zm106 201l152 -228 941 0 152 228 -1244 0zm1145 -347l0 -538 186 -24 0 687 -186 -124z"/>
  <path id="Carro_x0020_7" class="fil5" d="M3337 9336l-804 0c-213,0 -386,237 -386,450l0 517 -12 0 0 -48c0,-41 -33,-74 -74,-74l-39 0c-82,0 -149,67 -149,149l0 21 262 0 12 0 0 1814c0,213 173,386 386,386l804 0c213,0 386,-173 386,-386l0 -1814 14 0 262 0 0 -21c0,-82 -67,-149 -149,-149l-39 0c-41,0 -74,33 -74,74l0 48 -14 0 0 -517c0,-213 -173,-450 -386,-450zm318 969l0 797 -186 24 0 -328 186 -493zm-98 -233c-69,267 -152,582 -152,582l-941 0 -152 -582c0,0 607,-206 1244,0zm-1153 748l0 307 -187 -24 0 -776 187 493zm-187 1109l0 -708 187 23 0 560 -187 124zm106 201l152 -228 941 0 152 228 -1244 0zm1145 -347l0 -538 186 -24 0 687 -186 -124z"/>
  <path id="Carro_x0020_8" class="fil6" d="M6161 9336l-804 0c-213,0 -386,237 -386,450l0 517 -12 0 0 -48c0,-41 -33,-74 -74,-74l-39 0c-82,0 -149,67 -149,149l0 21 262 0 12 0 0 1814c0,213 173,386 386,386l804 0c213,0 386,-173 386,-386l0 -1814 14 0 262 0 0 -21c0,-82 -67,-149 -149,-149l-39 0c-41,0 -74,33 -74,74l0 48 -14 0 0 -517c0,-213 -173,-450 -386,-450zm318 969l0 797 -186 24 0 -328 186 -493zm-98 -233c-69,267 -152,582 -152,582l-941 0 -152 -582c0,0 607,-206 1244,0zm-1153 748l0 307 -187 -24 0 -776 187 493zm-187 1109l0 -708 187 23 0 560 -187 124zm106 201l152 -228 941 0 152 228 -1244 0zm1145 -347l0 -538 186 -24 0 687 -186 -124z"/>
  <path id="Carro_x0020_9" class="fil6" d="M8985 9336l-804 0c-213,0 -386,237 -386,450l0 517 -12 0 0 -48c0,-41 -33,-74 -74,-74l-39 0c-82,0 -149,67 -149,149l0 21 262 0 12 0 0 1814c0,213 173,386 386,386l804 0c213,0 386,-173 386,-386l0 -1814 14 0 262 0 0 -21c0,-82 -67,-149 -149,-149l-39 0c-41,0 -74,33 -74,74l0 48 -14 0 0 -517c0,-213 -173,-450 -386,-450zm318 969l0 797 -186 24 0 -328 186 -493zm-98 -233c-69,267 -152,582 -152,582l-941 0 -152 -582c0,0 607,-206 1244,0zm-1153 748l0 307 -187 -24 0 -776 187 493zm-187 1109l0 -708 187 23 0 560 -187 124zm106 201l152 -228 941 0 152 228 -1244 0zm1145 -347l0 -538 186 -24 0 687 -186 -124z"/>
  <path id="Carro_x0020_10" class="fil6" d="M13407 9336l-804 0c-213,0 -386,237 -386,450l0 517 -12 0 0 -48c0,-41 -33,-74 -74,-74l-39 0c-82,0 -149,67 -149,149l0 21 262 0 12 0 0 1814c0,213 173,386 386,386l804 0c213,0 386,-173 386,-386l0 -1814 14 0 262 0 0 -21c0,-82 -67,-149 -149,-149l-39 0c-41,0 -74,33 -74,74l0 48 -14 0 0 -517c0,-213 -173,-450 -386,-450zm318 969l0 797 -186 24 0 -328 186 -493zm-98 -233c-69,267 -152,582 -152,582l-941 0 -152 -582c0,0 607,-206 1244,0zm-1153 748l0 307 -187 -24 0 -776 187 493zm-187 1109l0 -708 187 23 0 560 -187 124zm106 201l152 -228 941 0 152 228 -1244 0zm1145 -347l0 -538 186 -24 0 687 -186 -124z"/>
  <path id="Carro_x0020_11" class="fil5" d="M16231 9336l-804 0c-213,0 -386,237 -386,450l0 517 -12 0 0 -48c0,-41 -33,-74 -74,-74l-39 0c-82,0 -149,67 -149,149l0 21 262 0 12 0 0 1814c0,213 173,386 386,386l804 0c213,0 386,-173 386,-386l0 -1814 14 0 262 0 0 -21c0,-82 -67,-149 -149,-149l-39 0c-41,0 -74,33 -74,74l0 48 -14 0 0 -517c0,-213 -173,-450 -386,-450zm318 969l0 797 -186 24 0 -328 186 -493zm-98 -233c-69,267 -152,582 -152,582l-941 0 -152 -582c0,0 607,-206 1244,0zm-1153 748l0 307 -187 -24 0 -776 187 493zm-187 1109l0 -708 187 23 0 560 -187 124zm106 201l152 -228 941 0 152 228 -1244 0zm1145 -347l0 -538 186 -24 0 687 -186 -124z"/>
  <path id="Carro_x0020_12" class="fil6" d="M19055 9336l-804 0c-213,0 -386,237 -386,450l0 517 -12 0 0 -48c0,-41 -33,-74 -74,-74l-39 0c-82,0 -149,67 -149,149l0 21 262 0 12 0 0 1814c0,213 173,386 386,386l804 0c213,0 386,-173 386,-386l0 -1814 14 0 262 0 0 -21c0,-82 -67,-149 -149,-149l-39 0c-41,0 -74,33 -74,74l0 48 -14 0 0 -517c0,-213 -173,-450 -386,-450zm318 969l0 797 -186 24 0 -328 186 -493zm-98 -233c-69,267 -152,582 -152,582l-941 0 -152 -582c0,0 607,-206 1244,0zm-1153 748l0 307 -187 -24 0 -776 187 493zm-187 1109l0 -708 187 23 0 560 -187 124zm106 201l152 -228 941 0 152 228 -1244 0zm1145 -347l0 -538 186 -24 0 687 -186 -124z"/>
  <path id="Carro_x0020_13" class="fil4" d="M3337 12850l-804 0c-213,0 -386,237 -386,450l0 517 -12 0 0 -48c0,-41 -33,-74 -74,-74l-39 0c-82,0 -149,67 -149,149l0 21 262 0 12 0 0 1814c0,213 173,386 386,386l804 0c213,0 386,-173 386,-386l0 -1814 14 0 262 0 0 -21c0,-82 -67,-149 -149,-149l-39 0c-41,0 -74,33 -74,74l0 48 -14 0 0 -517c0,-213 -173,-450 -386,-450zm318 969l0 797 -186 24 0 -328 186 -493zm-98 -233c-69,267 -152,582 -152,582l-941 0 -152 -582c0,0 607,-206 1244,0zm-1153 748l0 307 -187 -24 0 -776 187 493zm-187 1109l0 -708 187 23 0 560 -187 124zm106 201l152 -228 941 0 152 228 -1244 0zm1145 -347l0 -538 186 -24 0 687 -186 -124z"/>
  <path id="Carro_x0020_14" class="fil6" d="M6161 12850l-804 0c-213,0 -386,237 -386,450l0 517 -12 0 0 -48c0,-41 -33,-74 -74,-74l-39 0c-82,0 -149,67 -149,149l0 21 262 0 12 0 0 1814c0,213 173,386 386,386l804 0c213,0 386,-173 386,-386l0 -1814 14 0 262 0 0 -21c0,-82 -67,-149 -149,-149l-39 0c-41,0 -74,33 -74,74l0 48 -14 0 0 -517c0,-213 -173,-450 -386,-450zm318 969l0 797 -186 24 0 -328 186 -493zm-98 -233c-69,267 -152,582 -152,582l-941 0 -152 -582c0,0 607,-206 1244,0zm-1153 748l0 307 -187 -24 0 -776 187 493zm-187 1109l0 -708 187 23 0 560 -187 124zm106 201l152 -228 941 0 152 228 -1244 0zm1145 -347l0 -538 186 -24 0 687 -186 -124z"/>
  <path id="Carro_x0020_15" class="fil5" d="M8985 12850l-804 0c-213,0 -386,237 -386,450l0 517 -12 0 0 -48c0,-41 -33,-74 -74,-74l-39 0c-82,0 -149,67 -149,149l0 21 262 0 12 0 0 1814c0,213 173,386 386,386l804 0c213,0 386,-173 386,-386l0 -1814 14 0 262 0 0 -21c0,-82 -67,-149 -149,-149l-39 0c-41,0 -74,33 -74,74l0 48 -14 0 0 -517c0,-213 -173,-450 -386,-450zm318 969l0 797 -186 24 0 -328 186 -493zm-98 -233c-69,267 -152,582 -152,582l-941 0 -152 -582c0,0 607,-206 1244,0zm-1153 748l0 307 -187 -24 0 -776 187 493zm-187 1109l0 -708 187 23 0 560 -187 124zm106 201l152 -228 941 0 152 228 -1244 0zm1145 -347l0 -538 186 -24 0 687 -186 -124z"/>
  <path id="Carro_x0020_16" class="fil4" d="M13407 12850l-804 0c-213,0 -386,237 -386,450l0 517 -12 0 0 -48c0,-41 -33,-74 -74,-74l-39 0c-82,0 -149,67 -149,149l0 21 262 0 12 0 0 1814c0,213 173,386 386,386l804 0c213,0 386,-173 386,-386l0 -1814 14 0 262 0 0 -21c0,-82 -67,-149 -149,-149l-39 0c-41,0 -74,33 -74,74l0 48 -14 0 0 -517c0,-213 -173,-450 -386,-450zm318 969l0 797 -186 24 0 -328 186 -493zm-98 -233c-69,267 -152,582 -152,582l-941 0 -152 -582c0,0 607,-206 1244,0zm-1153 748l0 307 -187 -24 0 -776 187 493zm-187 1109l0 -708 187 23 0 560 -187 124zm106 201l152 -228 941 0 152 228 -1244 0zm1145 -347l0 -538 186 -24 0 687 -186 -124z"/>
  <path id="Carro_x0020_17" class="fil6" d="M16231 12850l-804 0c-213,0 -386,237 -386,450l0 517 -12 0 0 -48c0,-41 -33,-74 -74,-74l-39 0c-82,0 -149,67 -149,149l0 21 262 0 12 0 0 1814c0,213 173,386 386,386l804 0c213,0 386,-173 386,-386l0 -1814 14 0 262 0 0 -21c0,-82 -67,-149 -149,-149l-39 0c-41,0 -74,33 -74,74l0 48 -14 0 0 -517c0,-213 -173,-450 -386,-450zm318 969l0 797 -186 24 0 -328 186 -493zm-98 -233c-69,267 -152,582 -152,582l-941 0 -152 -582c0,0 607,-206 1244,0zm-1153 748l0 307 -187 -24 0 -776 187 493zm-187 1109l0 -708 187 23 0 560 -187 124zm106 201l152 -228 941 0 152 228 -1244 0zm1145 -347l0 -538 186 -24 0 687 -186 -124z"/>
  <path id="Carro_x0020_18" class="fil6" d="M19055 12850l-804 0c-213,0 -386,237 -386,450l0 517 -12 0 0 -48c0,-41 -33,-74 -74,-74l-39 0c-82,0 -149,67 -149,149l0 21 262 0 12 0 0 1814c0,213 173,386 386,386l804 0c213,0 386,-173 386,-386l0 -1814 14 0 262 0 0 -21c0,-82 -67,-149 -149,-149l-39 0c-41,0 -74,33 -74,74l0 48 -14 0 0 -517c0,-213 -173,-450 -386,-450zm318 969l0 797 -186 24 0 -328 186 -493zm-98 -233c-69,267 -152,582 -152,582l-941 0 -152 -582c0,0 607,-206 1244,0zm-1153 748l0 307 -187 -24 0 -776 187 493zm-187 1109l0 -708 187 23 0 560 -187 124zm106 201l152 -228 941 0 152 228 -1244 0zm1145 -347l0 -538 186 -24 0 687 -186 -124z"/>
  <path id="Carro_x0020_19" class="fil6" d="M3337 16364l-804 0c-213,0 -386,237 -386,450l0 517 -12 0 0 -48c0,-41 -33,-74 -74,-74l-39 0c-82,0 -149,67 -149,149l0 21 262 0 12 0 0 1814c0,213 173,386 386,386l804 0c213,0 386,-173 386,-386l0 -1814 14 0 262 0 0 -21c0,-82 -67,-149 -149,-149l-39 0c-41,0 -74,33 -74,74l0 48 -14 0 0 -517c0,-213 -173,-450 -386,-450zm318 969l0 797 -186 24 0 -328 186 -493zm-98 -233c-69,267 -152,582 -152,582l-941 0 -152 -582c0,0 607,-206 1244,0zm-1153 748l0 307 -187 -24 0 -776 187 493zm-187 1109l0 -708 187 23 0 560 -187 124zm106 201l152 -228 941 0 152 228 -1244 0zm1145 -347l0 -538 186 -24 0 687 -186 -124z"/>
  <path id="Carro_x0020_20" class="fil5" d="M6161 16364l-804 0c-213,0 -386,237 -386,450l0 517 -12 0 0 -48c0,-41 -33,-74 -74,-74l-39 0c-82,0 -149,67 -149,149l0 21 262 0 12 0 0 1814c0,213 173,386 386,386l804 0c213,0 386,-173 386,-386l0 -1814 14 0 262 0 0 -21c0,-82 -67,-149 -149,-149l-39 0c-41,0 -74,33 -74,74l0 48 -14 0 0 -517c0,-213 -173,-450 -386,-450zm318 969l0 797 -186 24 0 -328 186 -493zm-98 -233c-69,267 -152,582 -152,582l-941 0 -152 -582c0,0 607,-206 1244,0zm-1153 748l0 307 -187 -24 0 -776 187 493zm-187 1109l0 -708 187 23 0 560 -187 124zm106 201l152 -228 941 0 152 228 -1244 0zm1145 -347l0 -538 186 -24 0 687 -186 -124z"/>
  <path id="Carro_x0020_21" class="fil6" d="M8985 16364l-804 0c-213,0 -386,237 -386,450l0 517 -12 0 0 -48c0,-41 -33,-74 -74,-74l-39 0c-82,0 -149,67 -149,149l0 21 262 0 12 0 0 1814c0,213 173,386 386,386l804 0c213,0 386,-173 386,-386l0 -1814 14 0 262 0 0 -21c0,-82 -67,-149 -149,-149l-39 0c-41,0 -74,33 -74,74l0 48 -14 0 0 -517c0,-213 -173,-450 -386,-450zm318 969l0 797 -186 24 0 -328 186 -493zm-98 -233c-69,267 -152,582 -152,582l-941 0 -152 -582c0,0 607,-206 1244,0zm-1153 748l0 307 -187 -24 0 -776 187 493zm-187 1109l0 -708 187 23 0 560 -187 124zm106 201l152 -228 941 0 152 228 -1244 0zm1145 -347l0 -538 186 -24 0 687 -186 -124z"/>
  <path id="Carro_x0020_22" class="fil4" d="M13407 16364l-804 0c-213,0 -386,237 -386,450l0 517 -12 0 0 -48c0,-41 -33,-74 -74,-74l-39 0c-82,0 -149,67 -149,149l0 21 262 0 12 0 0 1814c0,213 173,386 386,386l804 0c213,0 386,-173 386,-386l0 -1814 14 0 262 0 0 -21c0,-82 -67,-149 -149,-149l-39 0c-41,0 -74,33 -74,74l0 48 -14 0 0 -517c0,-213 -173,-450 -386,-450zm318 969l0 797 -186 24 0 -328 186 -493zm-98 -233c-69,267 -152,582 -152,582l-941 0 -152 -582c0,0 607,-206 1244,0zm-1153 748l0 307 -187 -24 0 -776 187 493zm-187 1109l0 -708 187 23 0 560 -187 124zm106 201l152 -228 941 0 152 228 -1244 0zm1145 -347l0 -538 186 -24 0 687 -186 -124z"/>
  <path id="Carro_x0020_23" class="fil4" d="M16231 16364l-804 0c-213,0 -386,237 -386,450l0 517 -12 0 0 -48c0,-41 -33,-74 -74,-74l-39 0c-82,0 -149,67 -149,149l0 21 262 0 12 0 0 1814c0,213 173,386 386,386l804 0c213,0 386,-173 386,-386l0 -1814 14 0 262 0 0 -21c0,-82 -67,-149 -149,-149l-39 0c-41,0 -74,33 -74,74l0 48 -14 0 0 -517c0,-213 -173,-450 -386,-450zm318 969l0 797 -186 24 0 -328 186 -493zm-98 -233c-69,267 -152,582 -152,582l-941 0 -152 -582c0,0 607,-206 1244,0zm-1153 748l0 307 -187 -24 0 -776 187 493zm-187 1109l0 -708 187 23 0 560 -187 124zm106 201l152 -228 941 0 152 228 -1244 0zm1145 -347l0 -538 186 -24 0 687 -186 -124z"/>
  <path id="Carro_x0020_24" class="fil6" d="M19055 16364l-804 0c-213,0 -386,237 -386,450l0 517 -12 0 0 -48c0,-41 -33,-74 -74,-74l-39 0c-82,0 -149,67 -149,149l0 21 262 0 12 0 0 1814c0,213 173,386 386,386l804 0c213,0 386,-173 386,-386l0 -1814 14 0 262 0 0 -21c0,-82 -67,-149 -149,-149l-39 0c-41,0 -74,33 -74,74l0 48 -14 0 0 -517c0,-213 -173,-450 -386,-450zm318 969l0 797 -186 24 0 -328 186 -493zm-98 -233c-69,267 -152,582 -152,582l-941 0 -152 -582c0,0 607,-206 1244,0zm-1153 748l0 307 -187 -24 0 -776 187 493zm-187 1109l0 -708 187 23 0 560 -187 124zm106 201l152 -228 941 0 152 228 -1244 0zm1145 -347l0 -538 186 -24 0 687 -186 -124z"/>
  <path id="Carro_x0020_25" class="fil6" d="M3337 19878l-804 0c-213,0 -386,237 -386,450l0 517 -12 0 0 -48c0,-41 -33,-74 -74,-74l-39 0c-82,0 -149,67 -149,149l0 21 262 0 12 0 0 1814c0,213 173,386 386,386l804 0c213,0 386,-173 386,-386l0 -1814 14 0 262 0 0 -21c0,-82 -67,-149 -149,-149l-39 0c-41,0 -74,33 -74,74l0 48 -14 0 0 -517c0,-213 -173,-450 -386,-450zm318 969l0 797 -186 24 0 -328 186 -493zm-98 -233c-69,267 -152,582 -152,582l-941 0 -152 -582c0,0 607,-206 1244,0zm-1153 748l0 307 -187 -24 0 -776 187 493zm-187 1109l0 -708 187 23 0 560 -187 124zm106 201l152 -228 941 0 152 228 -1244 0zm1145 -347l0 -538 186 -24 0 687 -186 -124z"/>
  <path id="Carro_x0020_26" class="fil5" d="M6161 19878l-804 0c-213,0 -386,237 -386,450l0 517 -12 0 0 -48c0,-41 -33,-74 -74,-74l-39 0c-82,0 -149,67 -149,149l0 21 262 0 12 0 0 1814c0,213 173,386 386,386l804 0c213,0 386,-173 386,-386l0 -1814 14 0 262 0 0 -21c0,-82 -67,-149 -149,-149l-39 0c-41,0 -74,33 -74,74l0 48 -14 0 0 -517c0,-213 -173,-450 -386,-450zm318 969l0 797 -186 24 0 -328 186 -493zm-98 -233c-69,267 -152,582 -152,582l-941 0 -152 -582c0,0 607,-206 1244,0zm-1153 748l0 307 -187 -24 0 -776 187 493zm-187 1109l0 -708 187 23 0 560 -187 124zm106 201l152 -228 941 0 152 228 -1244 0zm1145 -347l0 -538 186 -24 0 687 -186 -124z"/>
  <path id="Carro_x0020_27" class="fil5" d="M8985 19878l-804 0c-213,0 -386,237 -386,450l0 517 -12 0 0 -48c0,-41 -33,-74 -74,-74l-39 0c-82,0 -149,67 -149,149l0 21 262 0 12 0 0 1814c0,213 173,386 386,386l804 0c213,0 386,-173 386,-386l0 -1814 14 0 262 0 0 -21c0,-82 -67,-149 -149,-149l-39 0c-41,0 -74,33 -74,74l0 48 -14 0 0 -517c0,-213 -173,-450 -386,-450zm318 969l0 797 -186 24 0 -328 186 -493zm-98 -233c-69,267 -152,582 -152,582l-941 0 -152 -582c0,0 607,-206 1244,0zm-1153 748l0 307 -187 -24 0 -776 187 493zm-187 1109l0 -708 187 23 0 560 -187 124zm106 201l152 -228 941 0 152 228 -1244 0zm1145 -347l0 -538 186 -24 0 687 -186 -124z"/>
  <path id="Carro_x0020_28" class="fil6" d="M13407 19878l-804 0c-213,0 -386,237 -386,450l0 517 -12 0 0 -48c0,-41 -33,-74 -74,-74l-39 0c-82,0 -149,67 -149,149l0 21 262 0 12 0 0 1814c0,213 173,386 386,386l804 0c213,0 386,-173 386,-386l0 -1814 14 0 262 0 0 -21c0,-82 -67,-149 -149,-149l-39 0c-41,0 -74,33 -74,74l0 48 -14 0 0 -517c0,-213 -173,-450 -386,-450zm318 969l0 797 -186 24 0 -328 186 -493zm-98 -233c-69,267 -152,582 -152,582l-941 0 -152 -582c0,0 607,-206 1244,0zm-1153 748l0 307 -187 -24 0 -776 187 493zm-187 1109l0 -708 187 23 0 560 -187 124zm106 201l152 -228 941 0 152 228 -1244 0zm1145 -347l0 -538 186 -24 0 687 -186 -124z"/>
  <path id="Carro_x0020_29" class="fil6" d="M16231 19878l-804 0c-213,0 -386,237 -386,450l0 517 -12 0 0 -48c0,-41 -33,-74 -74,-74l-39 0c-82,0 -149,67 -149,149l0 21 262 0 12 0 0 1814c0,213 173,386 386,386l804 0c213,0 386,-173 386,-386l0 -1814 14 0 262 0 0 -21c0,-82 -67,-149 -149,-149l-39 0c-41,0 -74,33 -74,74l0 48 -14 0 0 -517c0,-213 -173,-450 -386,-450zm318 969l0 797 -186 24 0 -328 186 -493zm-98 -233c-69,267 -152,582 -152,582l-941 0 -152 -582c0,0 607,-206 1244,0zm-1153 748l0 307 -187 -24 0 -776 187 493zm-187 1109l0 -708 187 23 0 560 -187 124zm106 201l152 -228 941 0 152 228 -1244 0zm1145 -347l0 -538 186 -24 0 687 -186 -124z"/>
  <path id="Carro_x0020_30" class="fil6" d="M19055 19878l-804 0c-213,0 -386,237 -386,450l0 517 -12 0 0 -48c0,-41 -33,-74 -74,-74l-39 0c-82,0 -149,67 -149,149l0 21 262 0 12 0 0 1814c0,213 173,386 386,386l804 0c213,0 386,-173 386,-386l0 -1814 14 0 262 0 0 -21c0,-82 -67,-149 -149,-149l-39 0c-41,0 -74,33 -74,74l0 48 -14 0 0 -517c0,-213 -173,-450 -386,-450zm318 969l0 797 -186 24 0 -328 186 -493zm-98 -233c-69,267 -152,582 -152,582l-941 0 -152 -582c0,0 607,-206 1244,0zm-1153 748l0 307 -187 -24 0 -776 187 493zm-187 1109l0 -708 187 23 0 560 -187 124zm106 201l152 -228 941 0 152 228 -1244 0zm1145 -347l0 -538 186 -24 0 687 -186 -124z"/>
  <path id="Carro_x0020_31" class="fil4" d="M3337 23392l-804 0c-213,0 -386,237 -386,450l0 517 -12 0 0 -48c0,-41 -33,-74 -74,-74l-39 0c-82,0 -149,67 -149,149l0 21 262 0 12 0 0 1814c0,213 173,386 386,386l804 0c213,0 386,-173 386,-386l0 -1814 14 0 262 0 0 -21c0,-82 -67,-149 -149,-149l-39 0c-41,0 -74,33 -74,74l0 48 -14 0 0 -517c0,-213 -173,-450 -386,-450zm318 969l0 797 -186 24 0 -328 186 -493zm-98 -233c-69,267 -152,582 -152,582l-941 0 -152 -582c0,0 607,-206 1244,0zm-1153 748l0 307 -187 -24 0 -776 187 493zm-187 1109l0 -708 187 23 0 560 -187 124zm106 201l152 -228 941 0 152 228 -1244 0zm1145 -347l0 -538 186 -24 0 687 -186 -124z"/>
  <path id="Carro_x0020_32" class="fil6" d="M6161 23392l-804 0c-213,0 -386,237 -386,450l0 517 -12 0 0 -48c0,-41 -33,-74 -74,-74l-39 0c-82,0 -149,67 -149,149l0 21 262 0 12 0 0 1814c0,213 173,386 386,386l804 0c213,0 386,-173 386,-386l0 -1814 14 0 262 0 0 -21c0,-82 -67,-149 -149,-149l-39 0c-41,0 -74,33 -74,74l0 48 -14 0 0 -517c0,-213 -173,-450 -386,-450zm318 969l0 797 -186 24 0 -328 186 -493zm-98 -233c-69,267 -152,582 -152,582l-941 0 -152 -582c0,0 607,-206 1244,0zm-1153 748l0 307 -187 -24 0 -776 187 493zm-187 1109l0 -708 187 23 0 560 -187 124zm106 201l152 -228 941 0 152 228 -1244 0zm1145 -347l0 -538 186 -24 0 687 -186 -124z"/>
  <path id="Carro_x0020_33" class="fil6" d="M8985 23392l-804 0c-213,0 -386,237 -386,450l0 517 -12 0 0 -48c0,-41 -33,-74 -74,-74l-39 0c-82,0 -149,67 -149,149l0 21 262 0 12 0 0 1814c0,213 173,386 386,386l804 0c213,0 386,-173 386,-386l0 -1814 14 0 262 0 0 -21c0,-82 -67,-149 -149,-149l-39 0c-41,0 -74,33 -74,74l0 48 -14 0 0 -517c0,-213 -173,-450 -386,-450zm318 969l0 797 -186 24 0 -328 186 -493zm-98 -233c-69,267 -152,582 -152,582l-941 0 -152 -582c0,0 607,-206 1244,0zm-1153 748l0 307 -187 -24 0 -776 187 493zm-187 1109l0 -708 187 23 0 560 -187 124zm106 201l152 -228 941 0 152 228 -1244 0zm1145 -347l0 -538 186 -24 0 687 -186 -124z"/>
  <path id="Carro_x0020_34" class="fil6" d="M13407 23392l-804 0c-213,0 -386,237 -386,450l0 517 -12 0 0 -48c0,-41 -33,-74 -74,-74l-39 0c-82,0 -149,67 -149,149l0 21 262 0 12 0 0 1814c0,213 173,386 386,386l804 0c213,0 386,-173 386,-386l0 -1814 14 0 262 0 0 -21c0,-82 -67,-149 -149,-149l-39 0c-41,0 -74,33 -74,74l0 48 -14 0 0 -517c0,-213 -173,-450 -386,-450zm318 969l0 797 -186 24 0 -328 186 -493zm-98 -233c-69,267 -152,582 -152,582l-941 0 -152 -582c0,0 607,-206 1244,0zm-1153 748l0 307 -187 -24 0 -776 187 493zm-187 1109l0 -708 187 23 0 560 -187 124zm106 201l152 -228 941 0 152 228 -1244 0zm1145 -347l0 -538 186 -24 0 687 -186 -124z"/>
  <path id="Carro_x0020_35_x0020_" class="fil5" d="M16231 23392l-804 0c-213,0 -386,237 -386,450l0 517 -12 0 0 -48c0,-41 -33,-74 -74,-74l-39 0c-82,0 -149,67 -149,149l0 21 262 0 12 0 0 1814c0,213 173,386 386,386l804 0c213,0 386,-173 386,-386l0 -1814 14 0 262 0 0 -21c0,-82 -67,-149 -149,-149l-39 0c-41,0 -74,33 -74,74l0 48 -14 0 0 -517c0,-213 -173,-450 -386,-450zm318 969l0 797 -186 24 0 -328 186 -493zm-98 -233c-69,267 -152,582 -152,582l-941 0 -152 -582c0,0 607,-206 1244,0zm-1153 748l0 307 -187 -24 0 -776 187 493zm-187 1109l0 -708 187 23 0 560 -187 124zm106 201l152 -228 941 0 152 228 -1244 0zm1145 -347l0 -538 186 -24 0 687 -186 -124z"/>
  <path id="Carro_x0020_36" class="fil6" d="M19055 23392l-804 0c-213,0 -386,237 -386,450l0 517 -12 0 0 -48c0,-41 -33,-74 -74,-74l-39 0c-82,0 -149,67 -149,149l0 21 262 0 12 0 0 1814c0,213 173,386 386,386l804 0c213,0 386,-173 386,-386l0 -1814 14 0 262 0 0 -21c0,-82 -67,-149 -149,-149l-39 0c-41,0 -74,33 -74,74l0 48 -14 0 0 -517c0,-213 -173,-450 -386,-450zm318 969l0 797 -186 24 0 -328 186 -493zm-98 -233c-69,267 -152,582 -152,582l-941 0 -152 -582c0,0 607,-206 1244,0zm-1153 748l0 307 -187 -24 0 -776 187 493zm-187 1109l0 -708 187 23 0 560 -187 124zm106 201l152 -228 941 0 152 228 -1244 0zm1145 -347l0 -538 186 -24 0 687 -186 -124z"/>
 </g>
</svg>
